<svg width="32" height="32" viewBox="0 0 32 32" fill="none" xmlns="http://www.w3.org/2000/svg">
<path d="M0.00299345 15.3963C-0.000997817 15.6278 -0.000997817 15.8613 0.00299345 16.0948C0.0289367 15.7495 0.0568755 15.2886 0.100779 14.9453C0.0209541 15.0231 0.000997771 15.3923 0.000997771 15.3963M2.59333 6.91687C2.45563 7.12641 2.32192 7.33994 2.1942 7.55747C2.09442 7.84484 2.11437 8.68434 2.25407 10.076C2.48955 9.84646 2.80087 9.53514 3.05232 9.3256C3.02039 7.79894 2.85475 6.92086 2.59333 6.91487M9.40443 1.26124L9.16296 1.36501C9.20486 1.36102 9.26274 1.34506 9.30465 1.35504C10.1308 1.8759 10.3863 5.33633 10.3504 8.40362C10.2087 8.35971 10.0191 8.30184 9.87739 8.25793C9.35454 18.8228 5.9879 22.7423 5.31936 23.4208C5.80231 22.413 6.07571 21.6107 6.44091 20.118C4.71269 23.2831 3.06031 24.3148 1.53165 23.1873C1.9188 24.0195 2.37181 24.8117 2.88469 25.5561C6.86997 28.0766 10.1129 18.5794 10.3504 8.40561C10.496 8.4555 10.6916 8.52335 10.8373 8.57524C10.7774 0.776301 9.46031 1.24128 9.40443 1.26523M8.55628 1.65039C7.96557 1.93976 7.39482 2.26704 6.85002 2.63025C5.61804 3.69325 5.00405 5.55851 5.00804 8.226C5.91007 8.01646 6.24733 7.93863 7.1334 7.89074C7.4986 12.4128 7.27908 16.3003 6.44291 20.122C8.51437 15.9731 9.2328 11.5687 9.62794 8.19607C9.70377 8.21603 9.80355 8.24397 9.87939 8.26392C10.071 0.929966 9.50022 1.20337 8.55828 1.65239M13.9345 10.1378C13.0065 9.59501 12.0486 9.03224 10.8393 8.57724C10.7255 19.196 7.52055 28.2761 4.24571 27.2644C4.91026 27.9888 5.63867 28.6473 6.42295 29.2321C6.45887 29.248 6.50677 29.268 6.54468 29.2839C8.10726 30.4753 9.98516 31.3594 12.0167 31.8284L12.6453 31.9601L13.0105 32C17.1595 31.6767 18.9974 22.1436 19.5941 18.0585C18.9376 20.0661 17.3969 24.7678 14.7687 28.1863C15.4292 26.7894 17.4428 22.5347 17.9258 13.0095C17.5147 12.6862 16.9679 12.2552 16.5528 11.9379C15.2496 18.6851 13.258 23.8039 10.6337 27.1506C13.3318 22.2892 13.9166 15.2427 13.9345 10.1877C13.9205 10.1797 13.9345 10.1498 13.9345 10.1338M13.0046 0.225507L12.33 0.353227C12.9267 0.987839 13.8467 4.115 13.9345 10.1338C15.2137 10.96 15.3774 11.0658 16.5548 11.9379C17.2912 7.56146 17.5267 3.9314 17.2173 1.71425C17.6564 3.8875 18.1353 7.61135 17.9278 13.0075C18.7926 13.7207 19.4784 14.2967 19.9853 14.7358C19.8655 15.995 19.7717 16.8012 19.5961 18.0565C19.9314 16.9789 20.1429 16.2405 20.4323 15.1249C21.5139 16.0975 23.0739 17.5742 25.1121 19.5552C25.7606 14.0892 25.6968 9.35953 24.9225 5.50196C24.25 2.15129 23.7031 1.93377 21.3942 1.01777C19.8176 0.500904 19.7558 0.480948 18.8198 0.297349C18.2092 0.20555 17.393 0.0898034 16.7783 0.0359213L16.7683 0.0478952C16.8694 0.363205 16.9606 0.667872 17.0417 0.961896C16.7404 0.213533 16.459 0.00798254 15.7386 0C14.0802 0.0638603 13.8687 0.0718428 13.0065 0.223511M26.7026 21.0539C26.1451 20.5417 25.6143 20.0422 25.1101 19.5552C23.6313 30.0363 20.9292 31.3953 20.4024 31.561C20.8793 31.3973 21.5179 31.1838 21.9869 30.9962L22.0108 30.9862L22.2304 30.8824C24.2021 29.6591 25.7068 26.3524 26.7026 21.0539M27.906 5.47403C27.5408 5.09086 27.0498 4.58397 26.6627 4.22077C26.6866 4.25669 26.7225 4.30259 26.7405 4.3405C27.0738 5.13876 28.4049 11.2534 26.7026 21.0519C27.3791 21.6387 27.5847 21.8163 28.2472 22.2852C29.4206 17.2962 29.5324 13.4366 29.4945 11.5807C29.4047 7.10845 28.9337 6.59757 27.906 5.47403M30.0872 22.8021C29.5703 22.9039 29.277 22.9239 28.2452 22.2872C27.2574 26.1488 26.038 28.6094 24.6231 29.6012C25.1859 29.2021 25.9223 28.6493 26.4551 28.2123C27.5607 27.1706 27.6505 27.0847 28.323 26.2845L28.7761 25.7078L28.9138 25.5142C29.4206 24.708 29.706 24.0494 30.0872 22.8041M30.8874 10.3174C30.4205 9.22781 30.4125 9.20586 30.1151 8.64908C30.155 8.73689 30.2089 8.85463 30.2448 8.94443C31.2267 11.7722 31.4043 18.1603 30.0872 22.8041C30.4464 22.6026 30.4843 22.5826 30.6998 22.2753C31.9112 18.8567 32.0828 15.7056 31.8593 14.0473C31.7795 13.5224 31.536 11.9279 30.8874 10.3194M30.9533 21.7664C30.8814 21.922 30.7896 22.1296 30.7018 22.2753C30.4464 22.9159 30.3287 23.2072 30.0453 23.7361C30.6001 22.6485 30.622 22.6046 30.9014 21.9041L30.9533 21.7664M1.38796 9.12604C1.13252 9.69679 0.911007 10.2875 0.723418 10.8942C0.749361 11.3512 0.922981 11.7942 0.851138 12.2612C0.709448 13.1852 0.272404 14.0273 0.104771 14.9433C0.29236 15.1469 0.172622 15.8992 0.00698472 16.0928C0.00299345 16.6476 0.026941 17.1944 0.0768319 17.7332C0.178609 18.1363 0.272404 18.3419 0.446024 18.5454C0.344912 18.5308 0.265087 18.5288 0.206548 18.5394C0.360212 19.8845 0.69947 21.1537 1.17443 22.3491C3.12217 23.6443 5.17568 17.8909 5.01004 8.25594C4.09205 8.63711 3.90047 8.71494 3.05831 9.32759C3.06829 11.898 2.72703 15.3644 1.7392 17.386C2.5594 14.8156 2.41771 11.7024 2.26006 10.078C2.08045 10.2995 1.83099 10.5868 1.66735 10.8183C1.71924 13.267 1.27621 16.1746 0.471968 16.6017C0.6855 16.1187 0.855129 15.7376 0.914998 14.4125C0.946929 13.714 0.715435 13.0215 0.861116 12.3191C0.966885 11.8181 1.39395 11.2494 1.66735 10.8163C1.62145 9.89835 1.54761 9.43935 1.39395 9.12604" fill="white"/>
</svg>
